<?xml version="1.0" encoding="UTF-8"?><svg id="svg2" xmlns="http://www.w3.org/2000/svg" viewBox="0 0 387.3306 447.4063"><g id="layer1"><g id="g5132"><path id="path3041" d="m172.1668,171.6436c-88.7586-.7698-.0271-.0835-88.8825-.7211-40.4697,275.4053-.1326.2026-40.4697,275.4462,130.2361.1013.3247-.1435,130.2279.3364-.8897-274.7827-.0563-.0321-.8758-275.0616Z" fill="#fffffe"/><path id="path3039" d="m303.9666,171.5128c-88.0796-.8419-.1315.2941-88.2564-.923-1.3335,276.3706-.0163.2781-1.298,275.8817.52.5142,29.8805.9349,65.2455.9349h64.3c-39.7628-275.6674.1028-.3413-39.9911-275.8935Z" fill="#fffffe"/><path id="path3037" d="m58.1161,186.2162c1.5506-19.9095.1331-.156,1.4559-19.9837,268.1551,0-.0806,0,268.0742,0,1.4829,22.6316-.0644.0589,1.4184,22.4379h31.2044c1.4829-22.1264-.0644.1939,1.4183-22.4379,25.9355-1.225.1007.075,25.5309-1.4023.2528-19.1712,0,.0428,0-19.633-387.1667.2523-.0541,0-387.2183,0,0,19.9289,0,.2094,0,19.633,25.6829,1.4775.1007-.075,25.5309,1.4023,1.0669,21.531.06.2936,1.4055,21.386,31.0213-1.6554-.0271.0595,31.1797-1.4023Z" fill="#fffffe"/><path id="path3035" d="m173.0426.7538L107.155.0011l-19.9245,136.3663,85.8121,1.8179V.7538Z" fill="#fffffe"/><path id="path3031" d="m299.1761,137.6482L278.7486,0l-64.5729.7538-.0595,136.3798,85.0599.5146Z" fill="#fffffe"/></g></g></svg>