<?xml version="1.0" encoding="utf-8"?>
<!-- Generator: Adobe Illustrator 27.2.0, SVG Export Plug-In . SVG Version: 6.00 Build 0)  -->
<svg version="1.1"
	 id="svg2" xmlns:sodipodi="http://sodipodi.sourceforge.net/DTD/sodipodi-0.dtd" xmlns:inkscape="http://www.inkscape.org/namespaces/inkscape" xmlns:dc="http://purl.org/dc/elements/1.1/" xmlns:cc="http://creativecommons.org/ns#" xmlns:rdf="http://www.w3.org/1999/02/22-rdf-syntax-ns#" xmlns:svg="http://www.w3.org/2000/svg"
	 xmlns="http://www.w3.org/2000/svg" xmlns:xlink="http://www.w3.org/1999/xlink" x="0px" y="0px" viewBox="0 0 500 600"
	 style="enable-background:new 0 0 500 600;" xml:space="preserve">
<style type="text/css">
	.st0{fill:#FFFFFE;}
</style>
<sodipodi:namedview  bordercolor="#666666" borderopacity="1.0" fit-margin-bottom="0" fit-margin-left="0" fit-margin-right="0" fit-margin-top="0" id="base" inkscape:current-layer="g5132" inkscape:cx="113.7167" inkscape:cy="350.61102" inkscape:document-units="px" inkscape:pageopacity="0.0" inkscape:pageshadow="2" inkscape:window-height="745" inkscape:window-maximized="1" inkscape:window-width="1366" inkscape:window-x="-8" inkscape:window-y="-8" inkscape:zoom="0.5" pagecolor="#ffffff" showgrid="false">
	</sodipodi:namedview>
<g id="layer1" transform="translate(-50.398787,-388.23233)" inkscape:groupmode="layer" inkscape:label="Layer 1">
	<g id="g5132" transform="matrix(5.4114588,0,0,-5.3569701,-688.63419,2145.5129)">
		<path id="path3041" inkscape:connector-curvature="0" sodipodi:nodetypes="ccccc" class="st0" d="M178.8,281.6
			c-16.4,0.1,0,0-16.4,0.1c-7.5-51.4,0,0-7.5-51.4c24.1,0,0.1,0,24.1-0.1C178.8,281.6,178.9,230.3,178.8,281.6z"/>
		<path id="path3039" inkscape:connector-curvature="0" sodipodi:nodetypes="cccscc" class="st0" d="M203.1,281.7
			c-16.3,0.2,0-0.1-16.3,0.2c-0.2-51.6,0-0.1-0.2-51.5c0.1-0.1,5.5-0.2,12.1-0.2h11.9C203.2,281.6,210.6,230.2,203.1,281.7z"/>
		<path id="path3037" inkscape:connector-curvature="0" sodipodi:nodetypes="ccccccccccccc" class="st0" d="M157.7,278.9
			c0.3,3.7,0,0,0.3,3.7c49.6,0,0,0,49.5,0c0.3-4.2,0,0,0.3-4.2c5.7,0,0.1,0,5.8,0c0.3,4.1,0,0,0.3,4.2c4.8,0.2,0,0,4.7,0.3
			c0,3.6,0,0,0,3.7c-71.5,0,0,0-71.6,0c0-3.7,0,0,0-3.7c4.7-0.3,0,0,4.7-0.3c0.2-4,0-0.1,0.3-4C157.7,279,152,278.6,157.7,278.9z"/>
		<path id="path3035" inkscape:connector-curvature="0" sodipodi:nodetypes="ccccc" class="st0" d="M179,313.5l-12.2,0.1l-3.7-25.5
			l15.9-0.3V313.5z"/>
		<path id="path3031" inkscape:connector-curvature="0" sodipodi:nodetypes="ccccc" class="st0" d="M202.3,288l-3.8,25.7l-11.9-0.1
			l0-25.5L202.3,288z"/>
	</g>
</g>
</svg>
